<?xml version="1.0" encoding="UTF-8" standalone="no"?>
<!DOCTYPE svg PUBLIC "-//W3C//DTD SVG 1.1//EN" "http://www.w3.org/Graphics/SVG/1.1/DTD/svg11.dtd">
<svg width="100%" height="100%" viewBox="0 0 1024 1024" version="1.1" xmlns="http://www.w3.org/2000/svg" xmlns:xlink="http://www.w3.org/1999/xlink" xml:space="preserve" xmlns:serif="http://www.serif.com/" style="fill-rule:evenodd;clip-rule:evenodd;stroke-linejoin:round;stroke-miterlimit:2;">
    <path
            fill="black"
            transform="scale(1, -1) translate(0, -1024)"
            d="M704.04,1024.372C527.326,1024.372,384.08,881.094,384.08,704.412C384.08,663.297,392.687,624.39,406.893,588.299C406.893,588.299,18.174,199.611,18.174,199.611C6.943,188.349,0,177.662,0,160.48C0,160.48,0,64.492,0,64.492C0,30.256,29.724,0.5,63.992,0.5C63.992,0.5,159.98,0.5,159.98,0.5C177.13,0.5,187.977,7.379,199.207,18.546C199.207,18.546,245.121,64.492,245.121,64.492C245.121,64.492,320.088,64.492,320.088,64.492C355.412,64.492,384.08,93.16,384.08,128.484C384.08,128.484,384.08,192.476,384.08,192.476C384.08,192.476,448.072,192.476,448.072,192.476C483.396,192.476,512.064,221.144,512.064,256.468C512.064,256.468,512.064,331.467,512.064,331.467C512.064,331.467,587.863,407.329,587.863,407.329C623.986,393.091,662.861,384.452,704.04,384.452C880.69,384.452,1024,527.73,1024,704.412C1024,881.094,880.69,1024.372,704.04,1024.372C704.04,1024.372,704.04,1024.372,704.04,1024.372M704.04,448.444C656.686,448.444,612.787,462.202,574.744,484.663C574.744,484.663,563.738,473.689,563.738,473.689C563.738,473.689,527.742,437.693,527.742,437.693C527.742,437.693,466.79,376.709,466.79,376.709C454.791,364.71,448.04,348.457,448.04,331.467C448.04,331.467,448.04,256.468,448.04,256.468C448.04,256.468,384.048,256.468,384.048,256.468C348.724,256.468,320.056,227.832,320.056,192.476C320.056,192.476,320.056,128.484,320.056,128.484C320.056,128.484,245.121,128.484,245.121,128.484C228.163,128.484,211.878,121.733,199.879,109.734C199.879,109.734,154.509,64.364,154.509,64.364C154.509,64.364,64.088,64.492,64.088,64.492C64.088,64.492,63.992,155.681,63.992,155.681C63.992,155.681,437.225,528.242,437.225,528.242C437.225,528.242,437.225,528.21,437.257,528.178C437.257,528.178,484.259,575.18,484.259,575.18C461.798,613.223,448.04,657.09,448.04,704.444C448.04,845.802,562.682,960.412,704.008,960.412C845.334,960.412,959.976,845.802,959.976,704.444C959.976,563.086,845.398,448.444,704.04,448.444C704.04,448.444,704.04,448.444,704.04,448.444M890.129,760.757C854.261,810.735,810.587,854.345,760.385,890.469C752.226,896.388,741.667,897.86,732.164,894.532C687.722,878.886,657.294,848.49,641.744,804.048C640.56,800.72,639.984,797.264,639.984,793.841C639.984,787.474,641.968,781.17,645.807,775.827C681.803,725.785,725.413,682.143,775.487,646.147C783.678,640.26,794.173,638.756,803.676,642.052C848.182,657.602,878.61,688.062,894.224,732.536C895.408,735.864,895.984,739.32,895.984,742.743C895.952,749.11,893.936,755.414,890.129,760.757C890.129,760.757,890.129,760.757,890.129,760.757M794.141,672.096C746.851,706.108,705.672,747.287,671.916,793.457C684.298,828.748,707.464,851.914,741.731,864.52C789.053,830.444,830.168,789.361,863.828,742.583C851.318,707.548,828.216,684.51,794.141,672.096C794.141,672.096,794.141,672.096,794.141,672.096"
    />
</svg>
