<?xml version="1.0" encoding="UTF-8" standalone="no"?>
<!DOCTYPE svg PUBLIC "-//W3C//DTD SVG 1.1//EN" "http://www.w3.org/Graphics/SVG/1.1/DTD/svg11.dtd">
<svg width="100%" height="100%" viewBox="0 0 1024 1024" version="1.1" xmlns="http://www.w3.org/2000/svg" xmlns:xlink="http://www.w3.org/1999/xlink" xml:space="preserve" xmlns:serif="http://www.serif.com/" style="fill-rule:evenodd;clip-rule:evenodd;stroke-linejoin:round;stroke-miterlimit:2;">
    <path d="M334.427,118.026C339.662,118.087 344.197,120.051 348.03,123.884C351.925,127.778 353.889,132.396 353.889,137.737C353.889,148.8 348.547,155.382 337.899,157.415C306.297,168.064 279.038,180.367 256.052,194.324C251.951,195.943 248.642,196.771 246.196,196.771L177.272,196.771C150.185,196.771 126.992,206.42 107.728,225.684C88.464,244.948 78.814,268.141 78.814,295.228L78.814,807.228C78.814,834.315 88.464,857.508 107.728,876.772C126.992,896.036 150.185,905.686 177.272,905.686L689.272,905.686C716.359,905.686 739.552,896.036 758.816,876.772C778.08,857.508 787.729,834.315 787.729,807.228L787.729,536.549C787.729,528.761 791.417,522.799 798.792,518.698C810.267,513.356 821.364,505.775 832.013,495.919C838.595,489.337 845.763,487.717 853.552,490.991C862.167,494.678 866.475,500.64 866.475,508.842L866.475,807.263C866.475,856.095 849.14,897.828 814.472,932.497C779.803,967.166 738.07,984.5 689.237,984.5L177.237,984.5C128.405,984.5 86.672,967.166 52.003,932.497C17.334,897.828 0,856.095 0,807.263L0,295.263C0,246.43 17.334,204.697 52.003,170.028C86.672,135.36 128.405,118.025 177.237,118.025L334.177,118.025L334.427,118.026ZM267.525,745.514C290.596,732.851 276.418,703.202 275.904,701.958C266.085,678.168 265.26,669.482 257.052,636.833C248.842,604.183 244.757,573.947 244.757,546.205C244.757,521.957 245.582,499.415 247.231,478.619C248.882,457.824 252.141,435.53 257.052,411.782C261.96,388.033 268.481,366.239 276.691,346.442C284.899,326.644 295.858,306.472 309.644,285.926C323.431,265.38 339.417,247.08 357.681,230.984C375.946,214.888 398.019,199.666 423.943,185.317C449.867,170.967 478.971,158.948 511.258,149.299C543.545,139.65 580.82,132.08 623.122,126.631C665.425,121.183 711.341,118.438 760.948,118.48L986.7,119.064C986.7,119.064 973.765,395.331 964.888,404.731L760.948,403.672C609.924,403.672 507.527,436.113 453.756,500.954C417.489,545.155 383.788,669.092 393.827,696.284C403.866,723.477 515.227,649.894 513.99,664.11C511.177,696.431 411.431,882.149 387.86,890.933C352.512,904.105 195.808,778.443 175.072,754.857C164.975,743.373 231.718,765.166 267.525,745.514Z"/>
</svg>
