<?xml version="1.0" encoding="UTF-8" standalone="no"?>
<!DOCTYPE svg PUBLIC "-//W3C//DTD SVG 1.1//EN" "http://www.w3.org/Graphics/SVG/1.1/DTD/svg11.dtd">
<svg width="100%" height="100%" viewBox="0 0 1024 1024" version="1.1" xmlns="http://www.w3.org/2000/svg" xmlns:xlink="http://www.w3.org/1999/xlink" xml:space="preserve" xmlns:serif="http://www.serif.com/" style="fill-rule:evenodd;clip-rule:evenodd;stroke-linejoin:round;stroke-miterlimit:2;">
    <path
            fill="black"
            transform="scale(1, -1) translate(0, -1024)"
            d="M950.848,683.772C950.848,714.62,946.752,741.852,938.56,765.5C930.368,789.148,919.904,807.9,907.136,821.788C894.368,835.676,878.848,847.004,860.576,855.804C842.304,864.604,824.384,870.492,806.848,873.532C789.312,876.572,770.656,878.076,750.848,878.108C731.04,878.14,709.728,873.276,686.848,863.548C663.968,853.82,642.944,841.628,623.712,826.972C604.48,812.316,588,798.588,574.272,785.82C560.544,773.052,549.12,761.34,540,750.684C533.152,742.3,523.808,738.108,512,738.108C500.192,738.108,490.848,742.3,484,750.684C474.848,761.34,463.424,773.052,449.728,785.82C436.032,798.588,419.552,812.284,400.288,826.972C381.024,841.66,359.968,853.852,337.152,863.548C314.336,873.244,292.992,878.108,273.152,878.108C253.312,878.108,234.656,876.572,217.152,873.532C199.648,870.492,181.76,864.572,163.424,855.804C145.088,847.036,129.568,835.708,116.864,821.788C104.16,807.868,93.664,789.116,85.44,765.5C77.216,741.884,73.12,714.652,73.152,683.772C73.152,619.772,108.768,552.156,180,480.924C180,480.924,512,160.924,512,160.924C512,160.924,843.424,480.348,843.424,480.348C915.04,551.964,950.848,619.772,950.848,683.772C950.848,683.772,950.848,683.772,950.848,683.772M1024,683.772C1024,599.58,980.384,513.884,893.152,426.62C893.152,426.62,537.152,83.772,537.152,83.772C530.304,76.924,521.92,73.5,512,73.5C502.08,73.5,493.696,76.924,486.848,83.772C486.848,83.772,130.272,427.772,130.272,427.772C126.464,430.812,121.216,435.772,114.56,442.62C107.904,449.468,97.344,461.948,82.848,480.06C68.352,498.172,55.424,516.732,44,535.772C32.576,554.812,22.4,577.852,13.44,604.924C4.48,631.996,0,658.268,0,683.772C0,767.58,24.192,833.116,72.576,880.348C120.96,927.58,187.808,951.196,273.152,951.196C296.768,951.196,320.864,947.1,345.44,938.908C370.016,930.716,392.864,919.676,414.016,905.756C435.168,891.836,453.344,878.812,468.576,866.62C483.808,854.428,498.272,841.5,512,827.772C525.728,841.5,540.192,854.428,555.424,866.62C570.656,878.812,588.832,891.836,609.984,905.756C631.136,919.676,653.984,930.716,678.56,938.908C703.136,947.1,727.232,951.196,750.848,951.196C836.192,951.196,903.04,927.58,951.424,880.348C999.808,833.116,1024,767.58,1024,683.772C1024,683.772,1024,683.772,1024,683.772"
    />
</svg>
