<?xml version="1.0" encoding="UTF-8" standalone="no"?>
<!DOCTYPE svg PUBLIC "-//W3C//DTD SVG 1.1//EN" "http://www.w3.org/Graphics/SVG/1.1/DTD/svg11.dtd">
<svg width="100%" height="100%" viewBox="0 0 1024 1024" version="1.1" xmlns="http://www.w3.org/2000/svg" xmlns:xlink="http://www.w3.org/1999/xlink" xml:space="preserve" xmlns:serif="http://www.serif.com/" style="fill-rule:evenodd;clip-rule:evenodd;stroke-linejoin:round;stroke-miterlimit:2;">
    <path
            fill="black"
            transform="scale(1, -1) translate(0, -1024)"
            d="M512,73.5C502.112,73.5,493.728,76.924,486.848,83.772C486.848,83.772,130.272,427.772,130.272,427.772C126.464,430.812,121.216,435.772,114.56,442.62C107.904,449.468,97.344,461.948,82.848,480.06C68.352,498.172,55.424,516.732,44,535.772C32.576,554.812,22.4,577.852,13.44,604.924C4.48,631.996,0,658.268,0,683.772C0,767.58,24.192,833.116,72.576,880.348C120.96,927.58,187.808,951.196,273.152,951.196C296.768,951.196,320.864,947.1,345.44,938.908C370.016,930.716,392.864,919.676,414.016,905.756C435.168,891.836,453.344,878.812,468.576,866.62C483.808,854.428,498.272,841.5,512,827.772C525.728,841.5,540.192,854.428,555.424,866.62C570.656,878.812,588.832,891.836,609.984,905.756C631.136,919.676,653.984,930.716,678.56,938.908C703.136,947.1,727.232,951.196,750.848,951.196C836.192,951.196,903.04,927.58,951.424,880.348C999.808,833.116,1024,767.58,1024,683.772C1024,599.58,980.384,513.884,893.152,426.62C893.152,426.62,537.152,83.772,537.152,83.772C530.304,76.924,521.92,73.5,512,73.5C512,73.5,512,73.5,512,73.5"
    />
</svg>
