<?xml version="1.0" encoding="UTF-8" standalone="no"?>
<!DOCTYPE svg PUBLIC "-//W3C//DTD SVG 1.1//EN" "http://www.w3.org/Graphics/SVG/1.1/DTD/svg11.dtd">
<svg width="100%" height="100%" viewBox="0 0 1024 1024" version="1.1" xmlns="http://www.w3.org/2000/svg" xmlns:xlink="http://www.w3.org/1999/xlink" xml:space="preserve" xmlns:serif="http://www.serif.com/" style="fill-rule:evenodd;clip-rule:evenodd;stroke-linejoin:round;stroke-miterlimit:2;">
    <path
            fill="black"
            transform="scale(1, -1) translate(0, -1024)"
            d="M255.963,85.308C255.963,85.308,767.963,85.308,767.963,85.308C767.963,85.308,767.963,341.308,767.963,341.308C767.963,341.308,255.963,341.308,255.963,341.308C255.963,341.308,255.963,85.308,255.963,85.308C255.963,85.308,255.963,85.308,255.963,85.308M853.308,85.308C853.308,85.308,938.654,85.308,938.654,85.308C938.654,85.308,938.654,682.654,938.654,682.654C938.654,688.889,936.414,697.439,931.971,708.34C927.529,719.242,923.086,726.895,918.643,731.338C918.643,731.338,731.301,918.68,731.301,918.68C726.858,923.123,719.279,927.566,708.639,932.009C697.999,936.452,689.337,938.654,682.654,938.692C682.654,938.692,682.654,661.336,682.654,661.336C682.654,643.565,676.419,628.445,663.987,616.013C651.555,603.581,636.435,597.346,618.664,597.346C618.664,597.346,234.645,597.346,234.645,597.346C216.874,597.346,201.754,603.581,189.321,616.013C176.889,628.445,170.654,643.565,170.654,661.336C170.654,661.336,170.654,938.692,170.654,938.692C170.654,938.692,85.308,938.692,85.308,938.692C85.308,938.692,85.308,85.346,85.308,85.346C85.308,85.346,170.654,85.346,170.654,85.346C170.654,85.346,170.654,362.701,170.654,362.701C170.654,380.472,176.889,395.592,189.321,408.025C201.754,420.457,216.874,426.692,234.645,426.692C234.645,426.692,789.318,426.692,789.318,426.692C807.089,426.692,822.209,420.457,834.641,408.025C847.074,395.592,853.308,380.472,853.308,362.701C853.308,362.701,853.308,85.346,853.308,85.346C853.308,85.346,853.308,85.308,853.308,85.308M597.308,704.009C597.308,704.009,597.308,917.336,597.308,917.336C597.308,923.123,595.18,928.126,590.962,932.345C586.743,936.564,581.74,938.692,575.953,938.692C575.953,938.692,447.935,938.692,447.935,938.692C442.148,938.692,437.145,936.564,432.926,932.345C428.708,928.126,426.58,923.123,426.58,917.336C426.58,917.336,426.58,704.009,426.58,704.009C426.58,698.223,428.708,693.22,432.926,689.001C437.145,684.782,442.148,682.654,447.935,682.654C447.935,682.654,575.953,682.654,575.953,682.654C581.74,682.654,586.743,684.782,590.962,689.001C595.18,693.22,597.308,698.223,597.308,704.009C597.308,704.009,597.308,704.009,597.308,704.009M1024,682.654C1024,682.654,1024,63.991,1024,63.991C1024,46.22,1017.765,31.099,1005.333,18.667C992.901,6.235,977.78,0,960.009,0C960.009,0,63.991,0,63.991,0C46.22,0,31.099,6.235,18.667,18.667C6.235,31.099,0,46.22,0,63.991C0,63.991,0,960.009,0,960.009C0,977.78,6.235,992.901,18.667,1005.333C31.099,1017.765,46.22,1024,63.991,1024C63.991,1024,682.654,1024,682.654,1024C700.425,1024,719.988,1019.557,741.306,1010.672C762.624,1001.786,779.536,991.109,791.968,978.676C791.968,978.676,978.639,792.006,978.639,792.006C991.071,779.574,1001.749,762.661,1010.634,741.343C1019.52,720.026,1023.963,700.463,1023.963,682.692C1023.963,682.692,1024,682.654,1024,682.654"/>
    />
</svg>
