<?xml version="1.0" encoding="UTF-8" standalone="no"?>
<!DOCTYPE svg PUBLIC "-//W3C//DTD SVG 1.1//EN" "http://www.w3.org/Graphics/SVG/1.1/DTD/svg11.dtd">
<svg width="100%" height="100%" viewBox="0 0 1024 1024" version="1.1" xmlns="http://www.w3.org/2000/svg" xmlns:xlink="http://www.w3.org/1999/xlink" xml:space="preserve" xmlns:serif="http://www.serif.com/" style="fill-rule:evenodd;clip-rule:evenodd;stroke-linejoin:round;stroke-miterlimit:2;">
    <path
            fill="black"
            transform="scale(1, -1) translate(0, -1024)"
            d="M1024,939.232C1024,939.232,1024,640.57,1024,640.57C1024,629.034,1019.781,619.029,1011.344,610.554C1002.907,602.08,992.902,597.861,981.329,597.899C981.329,597.899,682.667,597.899,682.667,597.899C664,597.899,650.896,606.784,643.318,624.554C635.739,641.877,638.875,657.22,652.651,670.548C652.651,670.548,744.639,762.536,744.639,762.536C678.859,823.426,601.319,853.852,511.981,853.852C465.763,853.852,421.636,844.855,379.637,826.86C337.637,808.866,301.275,784.525,270.625,753.875C239.975,723.225,215.634,686.863,197.64,644.863C179.645,602.864,170.648,558.737,170.648,512.519C170.648,466.301,179.645,422.173,197.64,380.174C215.634,338.175,239.975,301.813,270.625,271.162C301.275,240.512,337.637,216.171,379.637,198.177C421.636,180.183,465.763,171.185,511.981,171.185C564.882,171.185,614.87,182.758,661.984,205.867C709.098,228.976,748.858,261.643,781.3,303.866C784.398,308.309,789.513,310.996,796.644,311.855C802.878,311.855,808.403,309.839,813.294,305.845C813.294,305.845,904.61,213.857,904.61,213.857C908.604,210.31,910.732,205.755,910.956,200.193C911.18,194.63,909.5,189.628,905.954,185.185C857.533,126.535,798.846,81.064,729.967,48.846C661.088,16.628,588.401,0.5,511.981,0.5C442.654,0.5,376.426,14.052,313.334,41.155C250.241,68.259,195.81,104.696,150.003,150.503C104.196,196.31,67.759,250.741,40.655,313.834C13.552,376.926,0,443.154,0,512.481C0,581.808,13.552,648.037,40.655,711.129C67.759,774.221,104.196,828.652,150.003,874.46C195.81,920.267,250.241,956.704,313.334,983.807C376.426,1010.911,442.654,1024.463,511.981,1024.463C577.314,1024.463,640.518,1012.143,701.632,987.466C762.745,962.789,817.065,928.032,864.626,883.121C864.626,883.121,951.276,969.136,951.276,969.136C964.156,982.911,979.723,986.047,997.942,978.469C1015.264,970.89,1023.925,957.786,1023.925,939.12C1023.925,939.12,1024,939.232,1024,939.232"/>
    />
</svg>
