<?xml version="1.0" encoding="UTF-8" standalone="no"?>
<!DOCTYPE svg PUBLIC "-//W3C//DTD SVG 1.1//EN" "http://www.w3.org/Graphics/SVG/1.1/DTD/svg11.dtd">
<svg width="100%" height="100%" viewBox="0 0 1024 1024" version="1.1" xmlns="http://www.w3.org/2000/svg" xmlns:xlink="http://www.w3.org/1999/xlink" xml:space="preserve" xmlns:serif="http://www.serif.com/" style="fill-rule:evenodd;clip-rule:evenodd;stroke-linejoin:round;stroke-miterlimit:2;">
    <path
            fill="black"
            transform="scale(1, -1) translate(0, -1024)"
            d="M708.902,590.74C708.902,666.654,681.92,731.576,627.991,785.505C574.062,839.435,509.14,866.416,433.225,866.416C357.311,866.416,292.389,839.435,238.46,785.505C184.531,731.576,157.549,666.654,157.549,590.74C157.549,514.826,184.531,449.904,238.46,395.975C292.389,342.045,357.311,315.064,433.225,315.064C509.14,315.064,574.062,342.045,627.991,395.975C681.92,449.904,708.902,514.826,708.902,590.74C708.902,590.74,708.902,590.74,708.902,590.74M1023.966,78.775C1023.966,57.444,1016.178,38.974,1000.568,23.398C984.957,7.822,966.521,0.034,945.191,0C923.034,0,904.598,7.788,889.815,23.398C889.815,23.398,678.75,233.843,678.75,233.843C605.316,182.98,523.475,157.549,433.225,157.549C374.541,157.549,318.441,168.921,264.925,191.698C211.409,214.476,165.234,245.249,126.467,284.016C87.7,322.783,56.927,368.958,34.149,422.474C11.372,475.99,0,532.09,0,590.775C0,649.459,11.372,705.559,34.149,759.075C56.927,812.591,87.7,858.766,126.467,897.533C165.234,936.3,211.409,967.073,264.925,989.851C318.441,1012.628,374.541,1024,433.225,1024C491.91,1024,548.01,1012.628,601.526,989.851C655.042,967.073,701.217,936.3,739.984,897.533C778.751,858.766,809.524,812.591,832.302,759.075C855.079,705.559,866.451,649.459,866.451,590.775C866.451,500.525,841.02,418.684,790.157,345.25C790.157,345.25,1001.222,134.185,1001.222,134.185C1016.419,118.989,1024,100.553,1024,78.809C1024,78.809,1023.966,78.775,1023.966,78.775"/>
    />
</svg>
