<?xml version="1.0" encoding="UTF-8" standalone="no"?>
<!DOCTYPE svg PUBLIC "-//W3C//DTD SVG 1.1//EN" "http://www.w3.org/Graphics/SVG/1.1/DTD/svg11.dtd">
<svg width="100%" height="100%" viewBox="0 0 1024 1024" version="1.1" xmlns="http://www.w3.org/2000/svg" xmlns:xlink="http://www.w3.org/1999/xlink" xml:space="preserve" xmlns:serif="http://www.serif.com/" style="fill-rule:evenodd;clip-rule:evenodd;stroke-linejoin:round;stroke-miterlimit:2;">
    <path
            fill="black"
            transform="scale(1, -1) translate(0, -1024)"
            d="M866.475,376.124C866.475,376.124,866.475,216.737,866.475,216.737C866.475,167.905,849.14,126.172,814.472,91.503C779.803,56.834,738.07,39.5,689.237,39.5C689.237,39.5,177.237,39.5,177.237,39.5C128.405,39.5,86.672,56.834,52.003,91.503C17.334,126.172,0,167.905,0,216.737C0,216.737,0,728.737,0,728.737C0,777.57,17.334,819.303,52.003,853.972C86.672,888.64,128.405,905.975,177.237,905.975C177.237,905.975,334.177,905.975,334.177,905.975C339.518,905.975,344.136,904.01,348.03,900.116C351.925,896.222,353.889,891.604,353.889,886.263C353.889,875.2,348.547,868.618,337.899,866.585C306.297,855.936,279.038,843.633,256.052,829.676C251.951,828.057,248.642,827.229,246.196,827.229C246.196,827.229,177.272,827.229,177.272,827.229C150.185,827.229,126.992,817.58,107.728,798.316C88.464,779.052,78.814,755.859,78.814,728.772C78.814,728.772,78.814,216.772,78.814,216.772C78.814,189.685,88.464,166.492,107.728,147.228C126.992,127.964,150.185,118.314,177.272,118.314C177.272,118.314,689.272,118.314,689.272,118.314C716.359,118.314,739.552,127.964,758.816,147.228C778.08,166.492,787.729,189.685,787.729,216.772C787.729,216.772,787.729,348.451,787.729,348.451C787.729,356.239,791.417,362.201,798.792,366.302C810.267,371.644,821.364,379.225,832.013,389.081C838.595,395.663,845.763,397.283,853.552,394.009C862.167,390.322,866.475,384.36,866.475,376.158C866.475,376.158,866.475,376.124,866.475,376.124M1012.317,681.352C1012.317,681.352,776.012,445.047,776.012,445.047C768.638,437.259,759.402,433.365,748.305,433.365C743.377,433.365,738.277,434.399,732.935,436.432C716.945,443.428,708.95,455.524,708.95,472.755C708.95,472.755,708.95,590.924,708.95,590.924C708.95,590.924,610.492,590.924,610.492,590.924C477.986,590.924,388.144,564.044,340.966,510.318C292.133,454.111,276.97,357.101,295.442,219.253C296.682,209.811,292.581,202.849,283.139,198.335C279.865,197.508,277.384,197.094,275.764,197.094C269.182,197.094,263.875,199.748,259.774,205.089C255.673,210.844,251.365,217.185,246.85,224.181C242.336,231.177,234.237,245.203,222.555,266.328C210.872,287.453,200.706,307.855,192.09,327.567C183.475,347.279,175.583,370.679,168.381,397.731C161.178,424.784,157.594,449.837,157.594,472.824C157.594,492.915,158.318,511.593,159.765,528.824C161.213,546.055,164.073,564.527,168.381,584.204C172.688,603.882,178.409,621.94,185.612,638.344C192.814,654.748,202.429,671.462,214.525,688.486C226.621,705.51,240.647,720.673,256.672,734.01C272.697,747.347,292.064,759.96,314.809,771.849C337.554,783.739,363.09,793.698,391.418,801.693C419.746,809.688,452.45,815.96,489.565,820.475C526.681,824.989,566.967,827.264,610.492,827.229C610.492,827.229,708.95,827.229,708.95,827.229C708.95,827.229,708.95,945.399,708.95,945.399C708.95,962.63,716.945,974.726,732.935,981.722C738.277,983.755,743.377,984.789,748.305,984.789C758.954,984.789,768.19,980.895,776.012,973.107C776.012,973.107,1012.317,736.801,1012.317,736.801C1020.106,729.013,1024,719.777,1024,709.094C1024,698.411,1020.106,689.175,1012.317,681.387C1012.317,681.387,1012.317,681.352,1012.317,681.352"/>
    />
</svg>
