<?xml version="1.0" encoding="UTF-8" standalone="no"?>
<!DOCTYPE svg PUBLIC "-//W3C//DTD SVG 1.1//EN" "http://www.w3.org/Graphics/SVG/1.1/DTD/svg11.dtd">
<svg width="100%" height="100%" viewBox="0 0 1024 1024" version="1.1" xmlns="http://www.w3.org/2000/svg" xmlns:xlink="http://www.w3.org/1999/xlink" xml:space="preserve" xmlns:serif="http://www.serif.com/" style="fill-rule:evenodd;clip-rule:evenodd;stroke-linejoin:round;stroke-miterlimit:2;">
    <path
            fill="black"
            transform="scale(1, -1) translate(0, -1024)"
            d="M585.084,202.429C585.084,202.429,585.084,310.88,585.084,310.88C585.084,316.218,583.262,320.693,579.65,324.305C576.038,327.917,571.755,329.738,566.8,329.738C566.8,329.738,457.2,329.738,457.2,329.738C452.245,329.738,447.962,327.917,444.35,324.305C440.738,320.693,438.916,316.218,438.916,310.88C438.916,310.88,438.916,202.429,438.916,202.429C438.916,197.092,440.738,192.617,444.35,189.005C447.962,185.393,452.245,183.571,457.2,183.571C457.2,183.571,566.8,183.571,566.8,183.571C571.755,183.571,576.038,185.393,579.65,189.005C583.262,192.617,585.084,197.092,585.084,202.429C585.084,202.429,585.084,202.429,585.084,202.429M583.933,415.91C583.933,415.91,594.193,677.88,594.193,677.88C594.193,682.45,592.275,686.062,588.472,688.715C583.517,692.902,578.947,694.98,574.759,694.98C574.759,694.98,449.177,694.98,449.177,694.98C444.989,694.98,440.419,692.902,435.464,688.715C431.661,686.062,429.743,682.067,429.743,676.729C429.743,676.729,439.46,415.878,439.46,415.878C439.46,412.075,441.378,408.91,445.181,406.449C448.985,403.988,453.556,402.741,458.894,402.741C458.894,402.741,564.499,402.741,564.499,402.741C569.837,402.741,574.312,403.988,577.924,406.449C581.536,408.91,583.549,412.075,583.933,415.878C583.933,415.878,583.933,415.91,583.933,415.91M575.942,949.022C575.942,949.022,1014.283,145.375,1014.283,145.375C1027.612,121.403,1027.228,97.431,1013.132,73.458C1006.644,62.432,997.822,53.674,986.604,47.217C975.384,40.76,963.302,37.532,950.357,37.5C950.357,37.5,73.643,37.5,73.643,37.5C60.698,37.5,48.616,40.728,37.396,47.217C26.178,53.706,17.324,62.432,10.868,73.458C-3.228,97.431,-3.612,121.403,9.717,145.375C9.717,145.375,448.058,949.022,448.058,949.022C454.547,960.817,463.464,970.15,474.875,976.989C486.285,983.83,498.655,987.25,511.984,987.25C525.313,987.25,537.683,983.83,549.093,976.989C560.504,970.15,569.422,960.817,575.91,949.022C575.91,949.022,575.942,949.022,575.942,949.022"/>
    />
</svg>
