<?xml version="1.0" encoding="UTF-8" standalone="no"?>
<!DOCTYPE svg PUBLIC "-//W3C//DTD SVG 1.1//EN" "http://www.w3.org/Graphics/SVG/1.1/DTD/svg11.dtd">
<svg width="100%" height="100%" viewBox="0 0 1024 1024" version="1.1" xmlns="http://www.w3.org/2000/svg" xmlns:xlink="http://www.w3.org/1999/xlink" xml:space="preserve" xmlns:serif="http://www.serif.com/" style="fill-rule:evenodd;clip-rule:evenodd;stroke-linejoin:round;stroke-miterlimit:2;">
    <path
            fill="black"
            transform="scale(1, -1) translate(0, -1024)"
            d="M896,0C896,0,832,0,832,0C832,0,832,128,832,128C832,128,704,128,704,128C704,128,704,256,704,256C704,256,576,256,576,256C576,256,576,320,576,320C576,320,448,320,448,320C448,320,448,384,448,384C448,384,448,411.008,448,411.008C408.768,393.792,365.568,384,320,384C143.296,384,0,527.232,0,704C0,880.768,143.296,1024,320,1024C496.704,1024,640,880.768,640,704C640,658.432,630.144,615.232,612.992,576C612.992,576,704,576,704,576C704,576,704,448,704,448C704,448,1024,192,1024,192C1024,192,1024,0,1024,0C1024,0,896,0,896,0C896,0,896,0,896,0M256,896C185.344,896,128,838.656,128,768C128,697.344,185.344,640,256,640C326.656,640,384,697.344,384,768C384,838.656,326.656,896,256,896C256,896,256,896,256,896"/>
    />
</svg>
