<?xml version="1.0" encoding="UTF-8" standalone="no"?>
<!DOCTYPE svg PUBLIC "-//W3C//DTD SVG 1.1//EN" "http://www.w3.org/Graphics/SVG/1.1/DTD/svg11.dtd">
<svg width="100%" height="100%" viewBox="0 0 1024 1024" version="1.1" xmlns="http://www.w3.org/2000/svg" xmlns:xlink="http://www.w3.org/1999/xlink" xml:space="preserve" xmlns:serif="http://www.serif.com/" style="fill-rule:evenodd;clip-rule:evenodd;stroke-linecap:round;stroke-linejoin:round;stroke-miterlimit:1.5;">
    <g transform="matrix(3.60011,0,0,3.6419,-283.445,-2124.76)">
        <g transform="matrix(0.277769,0,0,0.274582,78.7323,583.421)">
            <path d="M258.397,499.553L258.397,703.9L58.836,703.9L58.836,790.435L258.397,790.435L258.397,999.732L345.003,999.732L345.003,790.435L546.587,790.435L546.587,703.9L345.003,703.9L345.003,499.553L258.397,499.553Z" style="fill:rgb(2,0,0);stroke:black;stroke-width:1px;"/>
        </g>
        <g transform="matrix(0.277769,0,0,0.274582,78.7323,583.421)">
            <path d="M231.51,627.607C97.838,589.229 0,466.063 0,320C0,143.232 143.296,0 320,0C496.704,0 640,143.232 640,320C640,365.568 630.144,408.768 612.992,448L704,448L704,576L1024,832L1024,1024L832,1024L832,896L704,896L704,747L685.038,747C684.215,722.445 674.731,698.637 656.586,691.329C635.842,682.975 579.958,681.697 522.422,683L448,683L448,612.992C422.876,624.017 396.124,631.998 368.164,636.312C372.461,563.518 375.772,460.582 362.695,431.226C346.335,394.497 253.839,394.497 237.479,431.226C224.916,459.43 227.479,555.549 231.51,627.607ZM256,128C185.344,128 128,185.344 128,256C128,326.656 185.344,384 256,384C326.656,384 384,326.656 384,256C384,185.344 326.656,128 256,128Z"/>
        </g>
    </g>
</svg>
