<?xml version="1.0" encoding="UTF-8" standalone="no"?>
<!DOCTYPE svg PUBLIC "-//W3C//DTD SVG 1.1//EN" "http://www.w3.org/Graphics/SVG/1.1/DTD/svg11.dtd">
<svg width="100%" height="100%" viewBox="0 0 1024 1024" version="1.1" xmlns="http://www.w3.org/2000/svg" xmlns:xlink="http://www.w3.org/1999/xlink" xml:space="preserve" xmlns:serif="http://www.serif.com/" style="fill-rule:evenodd;clip-rule:evenodd;stroke-linecap:round;stroke-linejoin:round;stroke-miterlimit:1.5;">
    <path d="M64.139,512.222C23.865,458.693 0,392.139 0,320C0,143.232 143.296,0 320,0C496.704,0 640,143.232 640,320C640,365.568 630.144,408.768 612.992,448L704,448L704,576L1024,832L1024,1024L832,1024L832,896L704,896L704,768L649.662,768C655.079,744.486 657.942,720.002 657.942,694.854C657.942,515.481 512.314,369.854 332.942,369.854C326.377,369.854 319.857,370.049 313.38,370.434C355.247,349.388 384,306.032 384,256C384,185.344 326.656,128 256,128C185.344,128 128,185.344 128,256C128,321.526 177.32,375.603 240.843,383.11C168.065,404.605 105.888,450.919 64.139,512.222Z"/>
    <path d="M202.558,481.421C202.558,481.421 301.836,409.437 439.973,467.192C441.103,467.665 328.696,586.267 328.696,586.267L202.558,481.421Z" style="fill:rgb(1,0,0);stroke:black;stroke-width:1px;"/>
    <path d="M536.581,546.115C536.156,545.334 448.826,641.183 448.826,641.183L448.826,694.792L457.956,703.806L546.785,703.806C546.785,703.806 573.94,614.887 536.581,546.115Z" style="stroke:black;stroke-width:1px;"/>
    <path d="M331.373,627.053L455.264,490.98C455.264,490.98 508.366,487.293 512.126,540.311L389.041,678.385C389.041,678.385 528.714,804.047 528.8,805.93C531.143,857.215 479.004,860.714 479.004,860.714L336.983,735.663L211.033,872.94C153.226,863.246 155.951,820.208 155.951,820.208L278.868,683.554L141.572,562.349C131.662,552.735 145.14,500.469 191.905,502.77L331.373,627.053Z" style="stroke:black;stroke-width:1px;"/>
    <path d="M325.744,422.381C598.574,441.948 593.406,671.422 593.406,671.422L621.215,671.422C621.215,671.422 624.655,410.632 325.744,394.152C325.744,394.152 301.646,420.653 325.744,422.381Z"/>
    <path d="M79.101,696.094C79.101,696.094 76.381,439.034 328.338,422.552L328.74,394.004C328.74,394.004 52.559,394.004 52.559,689.742C52.559,696.094 79.101,696.094 79.101,696.094Z"/>
    <path d="M361.863,936.373C361.863,936.373 97.315,946.066 78.955,691.533C78.492,685.12 52.13,685.103 52.13,685.103C52.13,685.103 60.118,969.537 361.863,962.591L361.863,936.373Z" style="fill:rgb(16,0,0);"/>
    <path d="M592.68,653.115C592.68,653.115 599.386,913.197 358.904,936.572C317.3,940.616 361.679,965.117 361.679,965.117C361.679,965.117 620.147,951.841 620.147,660.939C620.147,653.115 592.68,653.115 592.68,653.115Z"/>
</svg>
