<?xml version="1.0" encoding="UTF-8" standalone="no"?>
<!DOCTYPE svg PUBLIC "-//W3C//DTD SVG 1.1//EN" "http://www.w3.org/Graphics/SVG/1.1/DTD/svg11.dtd">
<svg width="100%" height="100%" viewBox="0 0 709 800" version="1.1" xmlns="http://www.w3.org/2000/svg" xmlns:xlink="http://www.w3.org/1999/xlink" xml:space="preserve" xmlns:serif="http://www.serif.com/" style="fill-rule:evenodd;clip-rule:evenodd;stroke-linejoin:round;stroke-miterlimit:2;">
    <g transform="matrix(1,0,0,1,-45.7574,0)">
        <g transform="matrix(1,0,0,1,100.954,225.628)">
            <g transform="matrix(1,0,0,1,-100.954,-225.628)">
                <path d="M709.413,286.156L690.204,286.156L690.204,193.468C690.204,192.89 690.112,192.308 690.042,191.718C690.012,188.042 688.832,184.425 686.312,181.562L532.061,5.365C532.015,5.32 531.97,5.304 531.938,5.255C531.019,4.228 529.947,3.374 528.814,2.635C528.478,2.41 528.14,2.221 527.788,2.022C526.807,1.49 525.765,1.041 524.693,0.72C524.403,0.643 524.141,0.524 523.851,0.447C522.686,0.173 521.476,0 520.25,0L141.176,0C123.866,0 109.804,14.078 109.804,31.374L109.804,286.149L90.598,286.149C65.836,286.149 45.757,306.219 45.757,330.99L45.757,564.17C45.757,588.917 65.836,609.007 90.598,609.007L109.805,609.007L109.805,768.626C109.805,785.92 123.868,800 141.178,800L658.824,800C676.118,800 690.196,785.922 690.196,768.626L690.196,609.007L709.406,609.007C734.161,609.007 754.244,588.924 754.244,564.17L754.244,330.997C754.243,306.219 734.174,286.156 709.413,286.156ZM141.176,609.007L658.822,609.007L658.822,760.134L141.176,760.134L141.176,609.007ZM211.968,342.852L253.452,342.852L253.452,473.352C253.452,490.415 251.952,503.54 248.952,512.727C244.921,524.727 237.609,534.36 227.015,541.626C216.421,548.891 202.452,552.524 185.109,552.524C164.765,552.524 149.109,546.829 138.14,535.438C127.171,524.048 121.64,507.337 121.546,485.306L160.781,480.806C161.249,492.618 162.984,500.962 165.984,505.837C170.484,513.243 177.327,516.946 186.515,516.946C195.796,516.946 202.359,514.298 206.202,509.001C210.046,503.704 211.968,492.712 211.968,476.024L211.968,342.852ZM585.749,473.212L585.749,438.477L675.468,438.477L675.468,520.602C666.749,529.04 654.116,536.47 637.57,542.891C621.023,549.313 604.265,552.524 587.296,552.524C565.734,552.524 546.937,548.001 530.906,538.954C514.874,529.907 502.827,516.97 494.765,500.141C486.702,483.313 482.671,465.009 482.671,445.227C482.671,423.759 487.171,404.681 496.171,387.993C505.171,371.306 518.343,358.509 535.687,349.602C548.906,342.759 565.359,339.337 585.046,339.337C610.64,339.337 630.632,344.704 645.023,355.438C659.413,366.173 668.671,381.009 672.796,399.946L631.452,407.681C628.546,397.556 623.085,389.563 615.07,383.704C607.054,377.845 597.046,374.915 585.046,374.915C566.859,374.915 552.398,380.681 541.663,392.212C530.929,403.743 525.562,420.852 525.562,443.54C525.562,468.009 530.999,486.36 541.874,498.595C552.749,510.829 566.999,516.946 584.624,516.946C593.343,516.946 602.085,515.235 610.851,511.813C619.616,508.391 627.14,504.243 633.421,499.368L633.421,473.212L585.749,473.212ZM297.749,549.009L297.749,342.852L364.546,342.852C389.859,342.852 406.359,343.884 414.046,345.946C425.859,349.04 435.749,355.766 443.718,366.126C451.687,376.485 455.671,389.868 455.671,406.274C455.671,418.931 453.374,429.571 448.781,438.196C444.187,446.821 438.351,453.595 431.273,458.516C424.195,463.438 416.999,466.696 409.687,468.29C399.749,470.259 385.359,471.243 366.515,471.243L339.374,471.243L339.374,549.009L297.749,549.009ZM339.374,377.727L339.374,436.227L362.156,436.227C378.562,436.227 389.531,435.149 395.062,432.993C400.593,430.837 404.929,427.462 408.07,422.868C411.21,418.274 412.781,412.931 412.781,406.837C412.781,399.337 410.577,393.149 406.171,388.274C401.765,383.399 396.187,380.352 389.437,379.134C384.468,378.196 374.484,377.727 359.484,377.727L339.374,377.727ZM141.176,31.374L504.564,31.374L504.564,191.882C504.564,200.549 511.595,207.568 520.25,207.568L658.822,207.568L658.822,286.156L141.176,286.156L141.176,31.374Z"/>
            </g>
        </g>
    </g>
</svg>
