<?xml version="1.0" encoding="UTF-8" standalone="no"?>
<!DOCTYPE svg PUBLIC "-//W3C//DTD SVG 1.1//EN" "http://www.w3.org/Graphics/SVG/1.1/DTD/svg11.dtd">
<svg width="100%" height="100%" viewBox="0 0 580 800" version="1.1" xmlns="http://www.w3.org/2000/svg" xmlns:xlink="http://www.w3.org/1999/xlink" xml:space="preserve" xmlns:serif="http://www.serif.com/" style="fill-rule:evenodd;clip-rule:evenodd;stroke-linejoin:round;stroke-miterlimit:2;">
    <g transform="matrix(1,0,0,1,-109.711,-1.53462)">
        <g transform="matrix(1.05419,0,0,1.14177,-22.0628,-55.5538)">
            <path d="M231.25,306.25L281.25,306.25L281.25,356.25L231.25,356.25L231.25,306.25ZM231.25,406.25L231.25,579.688L331.25,579.688L331.25,454.688L281.25,454.688L281.25,406.25L231.25,406.25ZM293.75,492.188L293.75,542.188L268.75,542.188L268.75,492.188L293.75,492.188ZM281.25,256.25L331.25,256.25L331.25,306.25L281.25,306.25L281.25,256.25ZM231.25,206.25L281.25,206.25L281.25,256.25L231.25,256.25L231.25,206.25ZM281.25,356.25L331.25,356.25L331.25,406.25L281.25,406.25L281.25,356.25ZM281.25,156.25L331.25,156.25L331.25,206.25L281.25,206.25L281.25,156.25ZM667.656,225.469L499.531,57.344C494.844,52.656 488.516,50 481.875,50L150,50C136.172,50 125,61.172 125,75L125,725C125,738.828 136.172,750 150,750L650,750C663.828,750 675,738.828 675,725L675,243.203C675,236.563 672.344,230.156 667.656,225.469ZM618.75,693.75L181.25,693.75L181.25,106.25L231.25,106.25L231.25,156.25L281.25,156.25L281.25,106.25L417.188,106.25L417.188,275C417.188,293 432,307.813 450,307.813L618.75,307.813L618.75,693.75Z" style="fill-rule:nonzero;"/>
        </g>
    </g>
</svg>
