<?xml version="1.0" encoding="UTF-8"?>
<!DOCTYPE svg PUBLIC "-//W3C//DTD SVG 1.1//EN" "http://www.w3.org/Graphics/SVG/1.1/DTD/svg11.dtd">
<svg version="1.1" xmlns="http://www.w3.org/2000/svg" xmlns:xlink="http://www.w3.org/1999/xlink" x="0" y="0" width="235.39" height="235.39" viewBox="0, 0, 235.39, 235.39">
  <g id="Dark" transform="translate(-1221.61, 80.015)">
    <g id="Mariadb-seal-browntext">
      <g>
        <path d="M1378.87,61.596 L1378.87,92.796 L1374.93,92.796 L1374.93,87.446 C1371.36,91.716 1367.29,93.856 1362.73,93.856 C1358.14,93.856 1354.26,92.226 1351.13,88.976 C1347.99,85.686 1346.43,81.786 1346.43,77.276 C1346.43,72.726 1348.02,68.846 1351.19,65.676 C1354.36,62.426 1358.17,60.796 1362.59,60.796 C1367.69,60.796 1371.82,62.976 1374.99,67.326 L1374.99,61.626 L1378.93,61.626 M1375.23,77.426 C1375.23,73.856 1374.03,70.856 1371.64,68.426 C1369.25,65.956 1366.31,64.726 1362.82,64.726 C1359.37,64.726 1356.45,65.996 1354.06,68.546 C1351.67,71.056 1350.47,74.036 1350.47,77.486 C1350.47,80.936 1351.69,83.936 1354.12,86.486 C1356.55,88.996 1359.45,90.246 1362.82,90.246 C1366.23,90.246 1369.15,89.026 1371.58,86.596 C1374.01,84.166 1375.23,81.106 1375.23,77.426" fill="#A57242"/>
        <g>
          <path d="M1388.115,92.596 L1388.115,50.396 L1396.875,50.396 C1402.875,50.396 1407.275,50.847 1410.075,51.746 C1412.895,52.608 1415.325,53.996 1417.365,55.916 C1419.405,57.796 1420.975,60.106 1422.065,62.856 C1423.165,65.596 1423.715,68.816 1423.715,72.496 C1423.715,76.146 1422.853,79.586 1421.125,82.796 C1419.435,86.006 1417.125,88.436 1414.185,90.086 C1411.285,91.736 1407.095,92.556 1401.585,92.556 L1388.085,92.556 M1392.145,88.556 L1397.025,88.556 C1402.125,88.556 1405.805,88.301 1408.125,87.792 C1410.435,87.282 1412.455,86.282 1414.185,84.792 C1415.905,83.262 1417.225,81.422 1418.125,79.262 C1419.026,77.102 1419.475,74.642 1419.475,71.852 C1419.475,69.072 1418.946,66.502 1417.885,64.152 C1416.865,61.802 1415.395,59.862 1413.475,58.332 C1411.555,56.802 1409.285,55.782 1406.655,55.272 C1404.065,54.723 1400.245,54.449 1395.155,54.449 L1392.155,54.449 L1392.155,88.549" fill="#A57242"/>
          <path d="M1333.115,52.596 C1333.115,51.695 1333.429,50.906 1334.056,50.246 C1334.722,49.58 1335.506,49.247 1336.406,49.247 C1337.347,49.247 1338.126,49.58 1338.756,50.246 C1339.422,50.873 1339.756,51.656 1339.756,52.596 C1339.756,53.498 1339.423,54.286 1338.756,54.946 C1338.129,55.573 1337.346,55.887 1336.406,55.887 C1335.505,55.887 1334.716,55.554 1334.056,54.888 C1333.429,54.222 1333.115,53.458 1333.115,52.598 M1334.405,61.298 L1338.465,61.298 L1338.465,92.498 L1334.405,92.498 L1334.405,61.298" fill="#A57242"/>
        </g>
        <path d="M1221.61,92.596 L1227.61,50.396 L1228.257,50.396 L1245.457,84.996 L1262.457,50.396 L1263.104,50.396 L1269.164,92.596 L1264.994,92.596 L1260.874,62.396 L1245.974,92.596 L1244.914,92.596 L1229.814,62.096 L1225.694,92.596 L1221.634,92.596" fill="#A57242"/>
        <path d="M1307.357,61.596 L1307.357,92.796 L1303.417,92.796 L1303.417,87.446 C1299.847,91.716 1295.777,93.856 1291.217,93.856 C1286.627,93.856 1282.747,92.226 1279.617,88.976 C1276.477,85.686 1274.917,81.786 1274.917,77.276 C1274.917,72.726 1276.507,68.846 1279.677,65.676 C1282.847,62.426 1286.657,60.796 1291.077,60.796 C1296.177,60.796 1300.307,62.976 1303.477,67.326 L1303.477,61.626 L1307.417,61.626 M1303.717,77.426 C1303.717,73.856 1302.517,70.856 1300.127,68.426 C1297.737,65.956 1294.797,64.726 1291.307,64.726 C1287.857,64.726 1284.937,65.996 1282.547,68.546 C1280.157,71.056 1278.957,74.036 1278.957,77.486 C1278.957,80.936 1280.177,83.936 1282.607,86.486 C1285.037,88.996 1287.937,90.246 1291.307,90.246 C1294.717,90.246 1297.637,89.026 1300.067,86.596 C1302.497,84.166 1303.707,81.106 1303.717,77.426" fill="#A57242"/>
        <path d="M1314.6,61.596 L1318.72,61.596 L1318.72,66.126 C1319.82,64.286 1320.88,62.936 1321.89,62.066 C1322.95,61.204 1324.1,60.776 1325.36,60.776 C1326.65,60.776 1327.95,61.129 1329.24,61.836 L1327.12,65.246 C1326.532,64.893 1325.92,64.717 1325.3,64.717 C1324.08,64.717 1322.93,65.344 1321.83,66.597 C1320.77,67.847 1319.99,69.477 1319.48,71.477 C1318.97,73.437 1318.716,77.027 1318.716,82.277 L1318.716,92.877 L1314.596,92.877 L1314.596,61.677" fill="#A57242"/>
        <path d="M1431.62,50.596 L1439.97,50.596 C1444.4,50.596 1447.75,51.498 1450.07,53.296 C1452.38,55.056 1453.54,57.606 1453.54,60.936 C1453.54,62.776 1453.07,64.486 1452.13,66.046 C1451.228,67.576 1449.9,68.806 1448.13,69.746 C1451.03,70.687 1453.23,72.096 1454.71,73.976 C1456.24,75.856 1457,78.096 1457,80.676 C1457,84.166 1455.73,87.066 1453.18,89.376 C1450.63,91.646 1447.34,92.786 1443.3,92.786 L1431.7,92.786 L1431.7,50.586 M1435.87,54.706 L1435.87,68.206 L1438.28,68.206 C1441.96,68.206 1444.71,67.618 1446.51,66.446 C1448.31,65.266 1449.21,63.426 1449.21,60.916 C1449.21,56.766 1446.39,54.686 1440.74,54.686 L1435.86,54.686 M1435.86,72.486 L1435.86,88.686 L1441.09,88.686 C1444.11,88.686 1446.32,88.392 1447.73,87.804 C1449.18,87.177 1450.36,86.234 1451.26,84.984 C1452.161,83.694 1452.61,82.374 1452.61,81.044 C1452.61,79.714 1452.355,78.534 1451.846,77.514 C1451.336,76.494 1450.576,75.594 1449.556,74.814 C1448.576,74.03 1447.376,73.444 1445.966,73.054 C1444.596,72.662 1442.006,72.466 1438.206,72.466 L1435.856,72.466" fill="#A57242"/>
      </g>
      <g>
        <path d="M1431.61,-79.787 C1428.83,-79.698 1429.71,-78.897 1423.7,-77.417 C1417.64,-75.927 1410.2,-76.387 1403.7,-73.647 C1384.2,-65.467 1380.3,-37.547 1362.6,-27.547 C1349.4,-20.067 1336,-19.467 1324,-15.747 C1316.1,-13.267 1307.5,-8.197 1300.3,-2.047 C1294.75,2.743 1294.6,6.953 1288.8,12.953 C1282.59,19.373 1264.1,13.062 1255.8,22.893 C1258.5,25.613 1259.68,26.383 1264.99,25.673 C1263.89,27.753 1257.41,29.513 1258.68,32.583 C1260.02,35.813 1275.68,37.993 1289.88,29.393 C1296.51,25.383 1301.78,19.613 1312.08,18.193 C1325.48,16.413 1340.88,19.333 1356.28,21.573 C1353.98,28.413 1349.38,32.973 1345.68,38.373 C1344.54,39.603 1347.98,39.743 1351.9,38.998 C1358.96,37.258 1364,35.848 1369.4,32.748 C1375.94,28.938 1376.93,19.148 1385,17.048 C1389.47,23.928 1401.6,25.548 1409.2,20.048 C1402.58,18.168 1400.75,4.048 1402.98,-2.152 C1405.1,-8.032 1407.19,-17.452 1409.32,-25.252 C1411.61,-33.602 1412.45,-44.152 1415.23,-48.352 C1419.4,-54.752 1424.01,-56.952 1428.03,-60.552 C1432.03,-64.162 1435.69,-67.672 1435.57,-75.952 C1435.531,-78.612 1434.16,-80.092 1431.63,-80.012 z" fill="#002B64"/>
        <path d="M1261.61,32.213 C1271.71,33.663 1277.91,32.213 1286.11,28.683 C1293.04,25.673 1299.71,19.483 1307.91,16.883 C1319.91,13.023 1333.11,16.888 1346.01,17.658 C1349.14,17.846 1352.25,17.848 1355.32,17.514 C1360.11,14.574 1360.01,3.614 1364.67,2.514 C1364.533,17.914 1358.2,27.214 1351.57,36.114 C1365.57,33.654 1373.87,25.614 1379.47,14.814 C1381.18,11.544 1382.64,8.034 1383.93,4.314 C1385.93,5.844 1384.795,10.514 1385.8,13.034 C1395.41,7.684 1400.9,-4.566 1404.6,-16.866 C1408.82,-31.166 1410.54,-45.666 1413.26,-49.866 C1415.91,-53.996 1420.04,-56.546 1423.86,-59.186 C1428.14,-62.196 1431.96,-65.326 1432.62,-71.086 C1428.1,-71.504 1427.06,-72.546 1426.39,-74.826 C1424.13,-73.546 1422.05,-73.276 1419.7,-73.206 C1417.66,-73.144 1415.42,-73.235 1412.68,-72.954 C1390.08,-70.634 1387.18,-45.654 1372.68,-31.554 C1371.62,-30.524 1370.48,-29.564 1369.28,-28.664 C1364.2,-24.884 1357.98,-22.174 1352.28,-19.984 C1343,-16.444 1334.18,-16.184 1325.48,-13.124 C1319.09,-10.884 1312.58,-7.624 1307.38,-4.034 C1306.07,-3.137 1304.83,-2.214 1303.7,-1.284 C1300.62,1.236 1298.6,4.026 1296.64,6.906 C1294.62,9.866 1292.68,12.916 1289.71,15.826 C1284.9,20.546 1266.91,17.206 1260.61,21.586 C1259.905,22.073 1259.35,22.656 1258.96,23.356 C1262.41,24.926 1264.72,23.962 1268.69,24.396 C1269.211,28.166 1260.5,30.406 1261.79,32.136 z" fill="#C49A6C"/>
        <path d="M1398.61,4.213 C1398.88,8.533 1401.39,17.113 1403.6,19.213 C1399.26,20.273 1391.8,18.525 1389.9,15.463 C1390.885,11.043 1396.01,7.003 1398.63,4.263 z" fill="#C49A6C"/>
        <path d="M1404.61,-63.787 C1407.81,-61.007 1414.53,-63.238 1413.33,-68.767 C1408.35,-69.179 1405.47,-67.487 1404.61,-63.787 z" fill="#002B64"/>
        <path d="M1426.61,-70.787 C1425.758,-68.997 1424.13,-66.697 1424.13,-62.147 C1424.123,-61.366 1423.537,-60.827 1423.527,-62.035 C1423.571,-66.485 1424.747,-68.405 1425.997,-70.925 C1426.578,-71.965 1426.928,-71.533 1426.612,-70.783 z" fill="#002B64"/>
        <path d="M1426.61,-70.787 C1425.61,-69.087 1423.19,-65.967 1422.79,-61.437 C1422.716,-60.66 1422.084,-60.177 1422.18,-61.38 C1422.616,-65.8 1424.55,-68.57 1426.02,-70.98 C1426.686,-71.959 1426.999,-71.503 1426.617,-70.784 z" fill="#002B64"/>
        <path d="M1425.61,-71.787 C1424.47,-70.177 1420.74,-66.437 1419.96,-61.957 C1419.82,-61.19 1419.15,-60.757 1419.347,-61.951 C1420.153,-66.321 1423.367,-69.761 1425.027,-72.051 C1425.773,-72.972 1426.047,-72.491 1425.607,-71.806 z" fill="#002B64"/>
        <path d="M1424.61,-72.787 C1423.25,-71.347 1418.81,-66.587 1417.41,-62.287 C1417.162,-61.547 1416.439,-61.217 1416.802,-62.367 C1418.212,-66.587 1422.102,-71.127 1424.072,-73.167 C1424.941,-73.974 1425.142,-73.459 1424.612,-72.842 z" fill="#002B64"/>
      </g>
    </g>
  </g>
</svg>
