<?xml version="1.0" encoding="UTF-8"?>
<!DOCTYPE svg PUBLIC "-//W3C//DTD SVG 1.1//EN" "http://www.w3.org/Graphics/SVG/1.1/DTD/svg11.dtd">
<svg version="1.1" xmlns="http://www.w3.org/2000/svg" xmlns:xlink="http://www.w3.org/1999/xlink" x="0" y="0" width="235.39" height="235.39" viewBox="0, 0, 235.39, 235.39">
  <g id="light" transform="translate(-515.61, -19.028)">
    <g id="Mariadb-seal-browntext">
      <g>
        <path d="M672.87,160.639 L672.87,191.839 L668.93,191.839 L668.93,186.489 C665.36,190.759 661.29,192.899 656.73,192.899 C652.14,192.899 648.26,191.269 645.13,188.019 C641.99,184.729 640.43,180.829 640.43,176.319 C640.43,171.769 642.02,167.889 645.19,164.719 C648.36,161.469 652.17,159.839 656.59,159.839 C661.69,159.839 665.82,162.019 668.99,166.369 L668.99,160.669 L672.93,160.669 M669.23,176.469 C669.23,172.899 668.03,169.899 665.64,167.469 C663.25,164.999 660.31,163.769 656.82,163.769 C653.37,163.769 650.45,165.039 648.06,167.589 C645.67,170.099 644.47,173.079 644.47,176.529 C644.47,179.979 645.69,182.979 648.12,185.529 C650.55,188.039 653.45,189.289 656.82,189.289 C660.23,189.289 663.15,188.069 665.58,185.639 C668.01,183.209 669.23,180.149 669.23,176.469" fill="#A57242"/>
        <g>
          <path d="M682.115,191.639 L682.115,149.439 L690.875,149.439 C696.875,149.439 701.275,149.89 704.075,150.789 C706.895,151.651 709.325,153.039 711.365,154.959 C713.405,156.839 714.975,159.149 716.065,161.899 C717.165,164.639 717.715,167.859 717.715,171.539 C717.715,175.189 716.853,178.629 715.125,181.839 C713.435,185.049 711.125,187.479 708.185,189.129 C705.285,190.779 701.095,191.599 695.585,191.599 L682.085,191.599 M686.145,187.599 L691.025,187.599 C696.125,187.599 699.805,187.344 702.125,186.835 C704.435,186.325 706.455,185.325 708.185,183.835 C709.905,182.305 711.225,180.465 712.125,178.305 C713.026,176.145 713.475,173.685 713.475,170.895 C713.475,168.115 712.946,165.545 711.885,163.195 C710.865,160.845 709.395,158.905 707.475,157.375 C705.555,155.845 703.285,154.825 700.655,154.315 C698.065,153.766 694.245,153.492 689.155,153.492 L686.155,153.492 L686.155,187.592" fill="#A57242"/>
          <path d="M627.115,151.639 C627.115,150.738 627.429,149.949 628.056,149.289 C628.722,148.623 629.506,148.29 630.406,148.29 C631.347,148.29 632.126,148.623 632.756,149.289 C633.422,149.916 633.756,150.699 633.756,151.639 C633.756,152.541 633.423,153.329 632.756,153.989 C632.129,154.616 631.346,154.93 630.406,154.93 C629.505,154.93 628.716,154.597 628.056,153.931 C627.429,153.265 627.115,152.501 627.115,151.641 M628.405,160.341 L632.465,160.341 L632.465,191.541 L628.405,191.541 L628.405,160.341" fill="#A57242"/>
        </g>
        <path d="M515.61,191.639 L521.61,149.439 L522.257,149.439 L539.457,184.039 L556.457,149.439 L557.104,149.439 L563.164,191.639 L558.994,191.639 L554.874,161.439 L539.974,191.639 L538.914,191.639 L523.814,161.139 L519.694,191.639 L515.634,191.639" fill="#A57242"/>
        <path d="M601.357,160.639 L601.357,191.839 L597.417,191.839 L597.417,186.489 C593.847,190.759 589.777,192.899 585.217,192.899 C580.627,192.899 576.747,191.269 573.617,188.019 C570.477,184.729 568.917,180.829 568.917,176.319 C568.917,171.769 570.507,167.889 573.677,164.719 C576.847,161.469 580.657,159.839 585.077,159.839 C590.177,159.839 594.307,162.019 597.477,166.369 L597.477,160.669 L601.417,160.669 M597.717,176.469 C597.717,172.899 596.517,169.899 594.127,167.469 C591.737,164.999 588.797,163.769 585.307,163.769 C581.857,163.769 578.937,165.039 576.547,167.589 C574.157,170.099 572.957,173.079 572.957,176.529 C572.957,179.979 574.177,182.979 576.607,185.529 C579.037,188.039 581.937,189.289 585.307,189.289 C588.717,189.289 591.637,188.069 594.067,185.639 C596.497,183.209 597.707,180.149 597.717,176.469" fill="#A57242"/>
        <path d="M608.6,160.639 L612.72,160.639 L612.72,165.169 C613.82,163.329 614.88,161.979 615.89,161.109 C616.95,160.247 618.1,159.819 619.36,159.819 C620.65,159.819 621.95,160.172 623.24,160.879 L621.12,164.289 C620.532,163.936 619.92,163.76 619.3,163.76 C618.08,163.76 616.93,164.387 615.83,165.64 C614.77,166.89 613.99,168.52 613.48,170.52 C612.97,172.48 612.716,176.07 612.716,181.32 L612.716,191.92 L608.596,191.92 L608.596,160.72" fill="#A57242"/>
        <path d="M725.62,149.639 L733.97,149.639 C738.4,149.64 741.75,150.541 744.07,152.339 C746.38,154.099 747.54,156.649 747.54,159.979 C747.54,161.819 747.07,163.529 746.13,165.089 C745.228,166.619 743.9,167.849 742.13,168.789 C745.03,169.73 747.23,171.139 748.71,173.019 C750.24,174.899 751,177.139 751,179.719 C751,183.209 749.73,186.109 747.18,188.419 C744.63,190.689 741.34,191.829 737.3,191.829 L725.7,191.829 L725.7,149.629 M729.87,153.749 L729.87,167.249 L732.28,167.249 C735.96,167.249 738.71,166.661 740.51,165.489 C742.31,164.309 743.21,162.469 743.21,159.959 C743.21,155.809 740.39,153.729 734.74,153.729 L729.86,153.729 M729.86,171.529 L729.86,187.729 L735.09,187.729 C738.11,187.729 740.32,187.435 741.73,186.847 C743.18,186.22 744.36,185.277 745.26,184.027 C746.161,182.737 746.61,181.417 746.61,180.087 C746.61,178.757 746.355,177.577 745.846,176.557 C745.336,175.537 744.576,174.637 743.556,173.857 C742.576,173.073 741.376,172.487 739.966,172.097 C738.596,171.705 736.006,171.509 732.206,171.509 L729.856,171.509" fill="#A57242"/>
      </g>
      <g>
        <path d="M725.61,19.256 C722.83,19.345 723.71,20.146 717.7,21.626 C711.64,23.116 704.2,22.656 697.7,25.396 C678.2,33.576 674.3,61.496 656.6,71.496 C643.4,78.976 630,79.576 618,83.296 C610.1,85.776 601.5,90.846 594.3,96.996 C588.75,101.786 588.6,105.996 582.8,111.996 C576.59,118.416 558.1,112.105 549.8,121.936 C552.5,124.656 553.68,125.426 558.99,124.716 C557.89,126.796 551.41,128.556 552.68,131.626 C554.02,134.856 569.68,137.036 583.88,128.436 C590.51,124.426 595.78,118.656 606.08,117.236 C619.48,115.456 634.88,118.376 650.28,120.616 C647.98,127.456 643.38,132.016 639.68,137.416 C638.54,138.646 641.98,138.786 645.9,138.041 C652.96,136.301 658,134.891 663.4,131.791 C669.94,127.981 670.93,118.191 679,116.091 C683.47,122.971 695.6,124.591 703.2,119.091 C696.58,117.211 694.75,103.091 696.98,96.891 C699.1,91.011 701.19,81.591 703.32,73.791 C705.61,65.441 706.45,54.891 709.23,50.691 C713.4,44.291 718.01,42.091 722.03,38.491 C726.03,34.881 729.69,31.371 729.57,23.091 C729.531,20.431 728.16,18.951 725.63,19.031 z" fill="#002B64"/>
        <path d="M555.61,131.256 C565.71,132.706 571.91,131.256 580.11,127.726 C587.04,124.716 593.71,118.526 601.91,115.926 C613.91,112.066 627.11,115.931 640.01,116.701 C643.14,116.889 646.25,116.891 649.32,116.557 C654.11,113.617 654.01,102.657 658.67,101.557 C658.533,116.957 652.2,126.257 645.57,135.157 C659.57,132.697 667.87,124.657 673.47,113.857 C675.18,110.587 676.64,107.077 677.93,103.357 C679.93,104.887 678.795,109.557 679.8,112.077 C689.41,106.727 694.9,94.477 698.6,82.177 C702.82,67.877 704.54,53.377 707.26,49.177 C709.91,45.047 714.04,42.497 717.86,39.857 C722.14,36.847 725.96,33.717 726.62,27.957 C722.1,27.539 721.06,26.497 720.39,24.217 C718.13,25.497 716.05,25.767 713.7,25.837 C711.66,25.899 709.42,25.808 706.68,26.089 C684.08,28.409 681.18,53.389 666.68,67.489 C665.62,68.519 664.48,69.479 663.28,70.379 C658.2,74.159 651.98,76.869 646.28,79.059 C637,82.599 628.18,82.859 619.48,85.919 C613.09,88.159 606.58,91.419 601.38,95.009 C600.07,95.906 598.83,96.829 597.7,97.759 C594.62,100.279 592.6,103.069 590.64,105.949 C588.62,108.909 586.68,111.959 583.71,114.869 C578.9,119.589 560.91,116.249 554.61,120.629 C553.905,121.116 553.35,121.699 552.96,122.399 C556.41,123.969 558.72,123.005 562.69,123.439 C563.211,127.209 554.5,129.449 555.79,131.179 z" fill="#C49A6C"/>
        <path d="M692.61,103.256 C692.88,107.576 695.39,116.156 697.6,118.256 C693.26,119.316 685.8,117.568 683.9,114.506 C684.885,110.086 690.01,106.046 692.63,103.306 z" fill="#C49A6C"/>
        <path d="M698.61,35.256 C701.81,38.036 708.53,35.805 707.33,30.276 C702.35,29.864 699.47,31.556 698.61,35.256 z" fill="#002B64"/>
        <path d="M720.61,28.256 C719.758,30.046 718.13,32.346 718.13,36.896 C718.123,37.677 717.537,38.216 717.527,37.008 C717.571,32.558 718.747,30.638 719.997,28.118 C720.578,27.078 720.928,27.51 720.612,28.26 z" fill="#002B64"/>
        <path d="M720.61,28.256 C719.61,29.956 717.19,33.076 716.79,37.606 C716.716,38.383 716.084,38.866 716.18,37.663 C716.616,33.243 718.55,30.473 720.02,28.063 C720.686,27.084 720.999,27.54 720.617,28.259 z" fill="#002B64"/>
        <path d="M719.61,27.256 C718.47,28.866 714.74,32.606 713.96,37.086 C713.82,37.853 713.15,38.286 713.347,37.092 C714.153,32.722 717.367,29.282 719.027,26.992 C719.773,26.071 720.047,26.552 719.607,27.237 z" fill="#002B64"/>
        <path d="M718.61,26.256 C717.25,27.696 712.81,32.456 711.41,36.756 C711.162,37.496 710.439,37.826 710.802,36.676 C712.212,32.456 716.102,27.916 718.072,25.876 C718.941,25.069 719.142,25.584 718.612,26.201 z" fill="#002B64"/>
      </g>
    </g>
  </g>
</svg>
